<svg width="32" height="34" viewBox="0 0 32 34" fill="none" xmlns="http://www.w3.org/2000/svg">
<path d="M1 15.0325C1 14.4558 1.24896 13.9072 1.68299 13.5274L14.683 2.15238C15.437 1.49259 16.563 1.49259 17.317 2.15238L30.317 13.5274C30.751 13.9072 31 14.4558 31 15.0325V30.875C31 31.9796 30.1046 32.875 29 32.875H21.75C20.6454 32.875 19.75 31.9796 19.75 30.875V23.625C19.75 22.5204 18.8546 21.625 17.75 21.625H14.25C13.1454 21.625 12.25 22.5204 12.25 23.625V30.875C12.25 31.9796 11.3546 32.875 10.25 32.875H3C1.89543 32.875 1 31.9796 1 30.875V15.0325Z" stroke="#361A00" stroke-width="2" stroke-linejoin="round"/>
</svg>
