<svg width="32" height="32" viewBox="0 0 32 32" fill="none" xmlns="http://www.w3.org/2000/svg">
<path fill-rule="evenodd" clip-rule="evenodd" d="M16 1C7.71573 1 1 7.71573 1 16C1 20.4798 2.96383 24.5009 6.07756 27.2495C6.69338 25.6054 10.901 22.6667 16 22.6667C21.099 22.6667 25.3066 25.6054 25.9224 27.2495C29.0362 24.5009 31 20.4798 31 16C31 7.71573 24.2843 1 16 1ZM16 18C20 18 22 16 22 12.5C22 9 20 7 16 7C12 7 10 9 10 12.5C10 16 12 18 16 18Z" fill="#F0EDE9"/>
<path d="M25.9224 27.2495C25.3066 25.6054 21.099 22.6667 16 22.6667C10.901 22.6667 6.69338 25.6054 6.07756 27.2495M25.9224 27.2495C29.0362 24.5009 31 20.4798 31 16C31 7.71573 24.2843 1 16 1C7.71573 1 1 7.71573 1 16C1 20.4798 2.96383 24.5009 6.07756 27.2495M25.9224 27.2495C23.2781 29.5836 19.8045 31 16 31C12.1955 31 8.72189 29.5837 6.07756 27.2495M22 12.5C22 16 20 18 16 18C12 18 10 16 10 12.5C10 9 12 7 16 7C20 7 22 9 22 12.5Z" stroke="#F0EDE9"/>
</svg>
