<svg width="33" height="33" viewBox="0 0 33 33" fill="none" xmlns="http://www.w3.org/2000/svg">
<path d="M1 1H2.82318L4.64706 4.64706M4.64706 4.64706H29.7655C30.9575 4.64706 31.8849 5.68319 31.7532 6.86792L30.3742 19.2797C30.2616 20.2926 29.4055 21.0588 28.3864 21.0588H6.64706C5.54249 21.0588 4.64706 20.1634 4.64706 19.0588V4.64706ZM26.5294 30.1765C26.5294 31.1836 25.713 32 24.7059 32C23.6988 32 22.8824 31.1836 22.8824 30.1765C22.8824 29.1694 23.6988 28.3529 24.7059 28.3529C25.713 28.3529 26.5294 29.1694 26.5294 30.1765ZM10.1176 30.1765C10.1176 31.1836 9.30122 32 8.29412 32C7.28701 32 6.47059 31.1836 6.47059 30.1765C6.47059 29.1694 7.28701 28.3529 8.29412 28.3529C9.30122 28.3529 10.1176 29.1694 10.1176 30.1765Z" stroke="#361A00" stroke-opacity="0.5" stroke-width="2" stroke-linecap="round" stroke-linejoin="round"/>
</svg>
